<svg width="69" height="25" viewBox="0 0 69 25" fill=" none" xmlns="http://www.w3.org/2000/svg">
<path d="M7.95426 19.1764C6.3634 19.1764 4.96896 18.8828 3.77091 18.2957C2.57286 17.7086 1.63995 16.8476 0.972187 15.7125C0.324062 14.5775 0 13.2076 0 11.6029C0 10.0764 0.324062 8.74567 0.972187 7.61063C1.63995 6.47558 2.56304 5.59494 3.74145 4.9687C4.91986 4.3229 6.30448 4 7.89534 4C9.40763 4 10.7333 4.27398 11.8725 4.82193C13.0312 5.35032 13.9249 6.13311 14.5533 7.1703C15.2015 8.18793 15.5255 9.4404 15.5255 10.9277C15.5255 11.1821 15.5157 11.4267 15.4961 11.6616C15.4764 11.8768 15.447 12.0921 15.4077 12.3074H2.03275V10.5461H13.316L12.4911 11.6322C12.5108 11.4365 12.5206 11.2506 12.5206 11.0745C12.5206 10.8788 12.5206 10.6831 12.5206 10.4874C12.5206 9.13707 12.1278 8.13901 11.3422 7.49321C10.5762 6.82783 9.40763 6.49515 7.83642 6.49515C6.08844 6.49515 4.84129 6.89633 4.09497 7.69869C3.34864 8.50105 2.97548 9.65567 2.97548 11.1625V11.9258C2.97548 13.4522 3.34864 14.6166 4.09497 15.419C4.84129 16.2213 6.09826 16.6225 7.86588 16.6225C9.39781 16.6225 10.4977 16.3877 11.1654 15.918C11.8528 15.4288 12.1965 14.7536 12.1965 13.8925V13.6577H15.3782V13.9219C15.3782 14.9591 15.0542 15.8789 14.406 16.6812C13.7776 17.464 12.9036 18.0805 11.7841 18.5306C10.6842 18.9611 9.40763 19.1764 7.95426 19.1764Z"/>
<path d="M21.6795 18.8828H18.4978V4.29355H21.4143V8.43256L21.6795 8.57933V18.8828ZM21.6795 10.6929H20.9724V8.22707H21.6206C21.7581 7.42471 22.033 6.71042 22.4455 6.08418C22.8579 5.43838 23.4078 4.92957 24.0952 4.55774C24.8023 4.18591 25.6566 4 26.6583 4C27.7778 4 28.691 4.23484 29.3981 4.70451C30.1051 5.17419 30.6158 5.80042 30.93 6.58321C31.2639 7.366 31.4308 8.21729 31.4308 9.13707V11.0451H28.2786V9.75352C28.2786 8.69675 28.0429 7.92374 27.5715 7.4345C27.1002 6.94525 26.3146 6.70063 25.2147 6.70063C23.9577 6.70063 23.0543 7.0431 22.5044 7.72804C21.9545 8.41299 21.6795 9.40126 21.6795 10.6929Z"/>
<path d="M41.7076 24.1667C40.2542 24.1667 38.9776 23.9416 37.8778 23.4915C36.7779 23.061 35.9138 22.4347 35.2853 21.6128C34.6764 20.7909 34.372 19.7928 34.372 18.6186H37.5243C37.5243 19.3231 37.6716 19.8907 37.9662 20.3212C38.2608 20.7517 38.7223 21.0551 39.3508 21.2312C39.9989 21.4269 40.8434 21.5247 41.8844 21.5247C43.0038 21.5247 43.8877 21.3975 44.5358 21.1431C45.2035 20.9083 45.6847 20.4875 45.9793 19.8809C46.2739 19.2742 46.4212 18.4327 46.4212 17.3564V8.81417L46.6569 8.60868V4.29355H49.5735V17.1803C49.5735 18.8045 49.2494 20.1255 48.6013 21.1431C47.9532 22.1803 47.0399 22.9436 45.8615 23.4328C44.6831 23.922 43.2984 24.1667 41.7076 24.1667ZM40.3819 17.5619C38.9285 17.5619 37.6814 17.2781 36.6404 16.7106C35.6192 16.1431 34.8237 15.3505 34.2542 14.3328C33.7042 13.3152 33.4293 12.1312 33.4293 10.7809C33.4293 9.43062 33.7141 8.24664 34.2836 7.22901C34.8728 6.21139 35.6977 5.41881 36.7583 4.85129C37.8385 4.28376 39.1151 4 40.5881 4C42.12 4 43.4163 4.34247 44.4769 5.02741C45.5571 5.69279 46.2248 6.66149 46.4802 7.93353H47.1577L46.981 10.4874H46.4212C46.4212 9.66545 46.2248 8.98051 45.832 8.43256C45.4392 7.86503 44.8795 7.44428 44.1528 7.1703C43.4261 6.89633 42.5423 6.75934 41.5014 6.75934C40.4997 6.75934 39.6257 6.88654 38.8794 7.14095C38.1527 7.39536 37.593 7.81611 37.2002 8.4032C36.827 8.97073 36.6404 9.7633 36.6404 10.7809C36.6404 11.779 36.827 12.5716 37.2002 13.1587C37.5733 13.7458 38.1135 14.1763 38.8205 14.4503C39.5472 14.7047 40.4113 14.8319 41.413 14.8319C43.0235 14.8319 44.2608 14.4992 45.125 13.8338C45.9891 13.1684 46.4212 12.19 46.4212 10.8983H46.981V13.7751H46.215C45.9597 14.8906 45.341 15.8006 44.359 16.5051C43.377 17.2096 42.0513 17.5619 40.3819 17.5619Z"/>
<path d="M60.5895 19.1764C58.979 19.1764 57.5551 18.8633 56.3178 18.237C55.1001 17.5912 54.1476 16.7008 53.4601 15.5657C52.7924 14.4111 52.4585 13.0902 52.4585 11.6029C52.4585 10.0764 52.7924 8.74567 53.4601 7.61063C54.1476 6.47558 55.1001 5.59494 56.3178 4.9687C57.5551 4.3229 58.979 4 60.5895 4C62.2393 4 63.673 4.3229 64.8907 4.9687C66.1084 5.59494 67.0511 6.47558 67.7189 7.61063C68.4063 8.74567 68.75 10.0764 68.75 11.6029C68.75 13.0902 68.4063 14.4111 67.7189 15.5657C67.0511 16.7008 66.1084 17.5912 64.8907 18.237C63.673 18.8633 62.2393 19.1764 60.5895 19.1764ZM60.5895 16.3583C62.3768 16.3583 63.6632 15.9571 64.4488 15.1548C65.2344 14.3328 65.6272 13.1489 65.6272 11.6029C65.6272 10.0568 65.2344 8.87288 64.4488 8.05095C63.6632 7.20944 62.3768 6.78869 60.5895 6.78869C58.8219 6.78869 57.5453 7.20944 56.7597 8.05095C55.9741 8.87288 55.5813 10.0568 55.5813 11.6029C55.5813 13.1489 55.9741 14.3328 56.7597 15.1548C57.5453 15.9571 58.8219 16.3583 60.5895 16.3583Z"/>
</svg>
