<svg width="18" height="18" viewBox="0 0 18 18" fill="none" xmlns="http://www.w3.org/2000/svg">
<path d="M14.5305 16.3677L14.0759 16.1595C14.0235 16.274 13.9536 16.3632 13.8657 16.4344C13.7965 16.4905 13.717 16.524 13.6123 16.5331C13.5358 16.5398 13.4554 16.5237 13.3567 16.4582L13.3568 16.4581L13.3463 16.4515L9.19625 13.8473L8.93049 13.6805L8.66473 13.8473L4.51473 16.4515L4.51464 16.4513L4.50423 16.4582C4.40555 16.5237 4.32514 16.5398 4.24873 16.5331C4.14394 16.524 4.06449 16.4905 3.99524 16.4344C3.90747 16.3633 3.83772 16.2743 3.7853 16.16C3.75378 16.0908 3.7385 15.9998 3.76856 15.8638C3.76859 15.8636 3.76862 15.8635 3.76865 15.8634L4.86845 10.9424L4.9322 10.6572L4.71496 10.4617L1.04419 7.15819C0.945727 7.06488 0.900968 6.97672 0.883143 6.89047L0.883147 6.89047L0.882745 6.88857C0.859403 6.7778 0.86615 6.67532 0.902553 6.57104C0.945215 6.44883 1.0025 6.3661 1.06731 6.30703C1.10669 6.27113 1.1849 6.22473 1.34132 6.19965L6.17594 5.75835L6.47965 5.73062L6.59401 5.44791L8.46901 0.812492L8.46973 0.810696C8.51654 0.693678 8.57769 0.628401 8.64887 0.586111L8.64959 0.585682C8.75552 0.522513 8.84694 0.5 8.93049 0.5C9.01398 0.5 9.10586 0.522488 9.21263 0.585824C9.28315 0.627946 9.34427 0.693252 9.39125 0.810696L9.39197 0.81249L11.267 5.44791L11.3813 5.73062L11.685 5.75835L16.5197 6.19965C16.6761 6.22473 16.7543 6.27113 16.7937 6.30703C16.8585 6.3661 16.9158 6.44883 16.9584 6.57105C16.995 6.67572 17.0019 6.7786 16.979 6.88955C16.9607 6.97634 16.9153 7.06483 16.8168 7.15818L13.146 10.4617L12.9288 10.6572L12.9925 10.9424L14.0923 15.8634C14.0924 15.8635 14.0924 15.8636 14.0924 15.8637C14.1225 15.9999 14.1072 16.0909 14.0756 16.1602L14.5305 16.3677ZM14.5305 16.3677C14.6138 16.1851 14.6305 15.9809 14.5805 15.7552L3.33049 16.3677C3.41382 16.5497 3.53049 16.7014 3.68049 16.8229C3.83049 16.9444 4.00549 17.0139 4.20549 17.0312C4.40549 17.0486 4.59716 16.9965 4.78049 16.875L8.93049 14.2708L13.0805 16.875C13.2638 16.9965 13.4555 17.0486 13.6555 17.0312C13.8555 17.0139 14.0305 16.9444 14.1805 16.8229C14.3305 16.7014 14.4472 16.5497 14.5305 16.3677Z" />
</svg>