<svg width="69" height="20" viewBox="0 0 69 20" fill="none" xmlns="http://www.w3.org/2000/svg">
<path d="M8.4 14.78C6.888 14.78 5.56267 14.5 4.424 13.94C3.28533 13.38 2.39867 12.5587 1.764 11.476C1.148 10.3933 0.84 9.08667 0.84 7.556C0.84 6.1 1.148 4.83067 1.764 3.748C2.39867 2.66533 3.276 1.82533 4.396 1.228C5.516 0.611999 6.832 0.303999 8.344 0.303999C9.78133 0.303999 11.0413 0.565332 12.124 1.088C13.2253 1.592 14.0747 2.33867 14.672 3.328C15.288 4.29867 15.596 5.49333 15.596 6.912C15.596 7.15467 15.5867 7.388 15.568 7.612C15.5493 7.81733 15.5213 8.02267 15.484 8.228H2.772V6.548H13.496L12.712 7.584C12.7307 7.39733 12.74 7.22 12.74 7.052C12.74 6.86533 12.74 6.67867 12.74 6.492C12.74 5.204 12.3667 4.252 11.62 3.636C10.892 3.00133 9.78133 2.684 8.288 2.684C6.62667 2.684 5.44133 3.06667 4.732 3.832C4.02267 4.59733 3.668 5.69867 3.668 7.136V7.864C3.668 9.32 4.02267 10.4307 4.732 11.196C5.44133 11.9613 6.636 12.344 8.316 12.344C9.772 12.344 10.8173 12.12 11.452 11.672C12.1053 11.2053 12.432 10.5613 12.432 9.74V9.516H15.456V9.768C15.456 10.7573 15.148 11.6347 14.532 12.4C13.9347 13.1467 13.104 13.7347 12.04 14.164C10.9947 14.5747 9.78133 14.78 8.4 14.78ZM22.2849 14.5H19.2609V0.584H22.0329V4.532L22.2849 4.672V14.5ZM22.2849 6.688H21.6129V4.336H22.2289C22.3596 3.57067 22.6209 2.88933 23.0129 2.292C23.4049 1.676 23.9276 1.19067 24.5809 0.835999C25.2529 0.481332 26.0649 0.303999 27.0169 0.303999C28.0809 0.303999 28.9489 0.527999 29.6209 0.976C30.2929 1.424 30.7783 2.02133 31.0769 2.768C31.3943 3.51467 31.5529 4.32667 31.5529 5.204V7.024H28.5569V5.792C28.5569 4.784 28.3329 4.04667 27.8849 3.58C27.4369 3.11333 26.6903 2.88 25.6449 2.88C24.4503 2.88 23.5916 3.20667 23.0689 3.86C22.5463 4.51333 22.2849 5.456 22.2849 6.688ZM42.1603 19.54C40.779 19.54 39.5657 19.3253 38.5203 18.896C37.475 18.4853 36.6537 17.888 36.0563 17.104C35.4777 16.32 35.1883 15.368 35.1883 14.248H38.1843C38.1843 14.92 38.3243 15.4613 38.6043 15.872C38.8843 16.2827 39.323 16.572 39.9203 16.74C40.5363 16.9267 41.339 17.02 42.3283 17.02C43.3923 17.02 44.2323 16.8987 44.8483 16.656C45.483 16.432 45.9403 16.0307 46.2203 15.452C46.5003 14.8733 46.6403 14.0707 46.6403 13.044V4.896L46.8643 4.7V0.584H49.6363V12.876C49.6363 14.4253 49.3283 15.6853 48.7123 16.656C48.0963 17.6453 47.2283 18.3733 46.1083 18.84C44.9883 19.3067 43.6723 19.54 42.1603 19.54ZM40.9003 13.24C39.519 13.24 38.3337 12.9693 37.3443 12.428C36.3737 11.8867 35.6177 11.1307 35.0763 10.16C34.5537 9.18933 34.2923 8.06 34.2923 6.772C34.2923 5.484 34.563 4.35467 35.1043 3.384C35.6643 2.41333 36.4483 1.65733 37.4563 1.116C38.483 0.574666 39.6963 0.303999 41.0963 0.303999C42.5523 0.303999 43.7843 0.630666 44.7923 1.284C45.819 1.91867 46.4537 2.84267 46.6963 4.056H47.3403L47.1723 6.492H46.6403C46.6403 5.708 46.4537 5.05467 46.0803 4.532C45.707 3.99067 45.175 3.58933 44.4843 3.328C43.7937 3.06667 42.9537 2.936 41.9643 2.936C41.0123 2.936 40.1817 3.05733 39.4723 3.3C38.7817 3.54267 38.2497 3.944 37.8763 4.504C37.5217 5.04533 37.3443 5.80133 37.3443 6.772C37.3443 7.724 37.5217 8.48 37.8763 9.04C38.231 9.6 38.7443 10.0107 39.4163 10.272C40.107 10.5147 40.9283 10.636 41.8803 10.636C43.411 10.636 44.587 10.3187 45.4083 9.684C46.2297 9.04933 46.6403 8.116 46.6403 6.884H47.1723V9.628H46.4443C46.2017 10.692 45.6137 11.56 44.6803 12.232C43.747 12.904 42.487 13.24 40.9003 13.24ZM60.9464 14.78C59.4157 14.78 58.0624 14.4813 56.8864 13.884C55.729 13.268 54.8237 12.4187 54.1704 11.336C53.5357 10.2347 53.2184 8.97467 53.2184 7.556C53.2184 6.1 53.5357 4.83067 54.1704 3.748C54.8237 2.66533 55.729 1.82533 56.8864 1.228C58.0624 0.611999 59.4157 0.303999 60.9464 0.303999C62.5144 0.303999 63.877 0.611999 65.0344 1.228C66.1917 1.82533 67.0877 2.66533 67.7224 3.748C68.3757 4.83067 68.7024 6.1 68.7024 7.556C68.7024 8.97467 68.3757 10.2347 67.7224 11.336C67.0877 12.4187 66.1917 13.268 65.0344 13.884C63.877 14.4813 62.5144 14.78 60.9464 14.78ZM60.9464 12.092C62.645 12.092 63.8677 11.7093 64.6144 10.944C65.361 10.16 65.7344 9.03067 65.7344 7.556C65.7344 6.08133 65.361 4.952 64.6144 4.168C63.8677 3.36533 62.645 2.964 60.9464 2.964C59.2664 2.964 58.053 3.36533 57.3064 4.168C56.5597 4.952 56.1864 6.08133 56.1864 7.556C56.1864 9.03067 56.5597 10.16 57.3064 10.944C58.053 11.7093 59.2664 12.092 60.9464 12.092Z" fill="#101828"/>
</svg>
